# xmcd
#
# Track frame offsets: 
#        150
#        19584
#        50802
#        81636
#        105245
#        131440
#        155795
#        174502
#        200238
#        236409
#
# Disc length: 3432 seconds
#
# Revision: 0
# Processed by: cddbd v1.5PL3 Copyright (c) Steve Scherf et al.
# Submitted via: ExactAudioCopy v0.95a4
#
DISCID=860d660a
DTITLE=Nieznany wykonawca - Dog Party
DYEAR=1994
DGENRE=Blues
TTITLE0=Hole Diggin'
TTITLE1=Fence Climbin' Blues
TTITLE2=Dog Party
TTITLE3=Same As You
TTITLE4=Milk Bone
TTITLE5=Hell Bent Pup
TTITLE6=Hound Dog
TTITLE7=Dog Walk
TTITLE8=Smelly Ol' Dog Blues
TTITLE9=Too Many Gittars
EXTD=
EXTT0=
EXTT1=
EXTT2=
EXTT3=
EXTT4=
EXTT5=
EXTT6=
EXTT7=
EXTT8=
EXTT9=
PLAYORDER=
